<svg xmlns="http://www.w3.org/2000/svg" viewBox="0 0 32 32" role="img" aria-label="tank">
  <rect width="32" height="32" rx="7" fill="#58a6ff"/>
  <g fill="#0e1116">
    <!-- barrel -->
    <rect x="16.5" y="10.4" width="12.5" height="2.6" rx="1.3"/>
    <!-- turret -->
    <rect x="10.5" y="7.5" width="8.5" height="5.5" rx="1.6"/>
    <!-- hull -->
    <path d="M4.5 14h23a1.5 1.5 0 0 1 1.5 1.5v2.2a2.3 2.3 0 0 1-2.3 2.3H5.3A2.3 2.3 0 0 1 3 17.7v-2.2A1.5 1.5 0 0 1 4.5 14z"/>
    <!-- tread -->
    <rect x="2.5" y="21" width="27" height="6.5" rx="3.25"/>
  </g>
  <!-- road wheels punched out of the tread -->
  <g fill="#58a6ff">
    <circle cx="7.5" cy="24.25" r="1.45"/>
    <circle cx="13" cy="24.25" r="1.45"/>
    <circle cx="18.5" cy="24.25" r="1.45"/>
    <circle cx="24" cy="24.25" r="1.45"/>
  </g>
</svg>
